# xmcd
#
# Track frame offsets:
#	150
#	16944
#	31030
#	46578
#	61111
#	74969
#	87691
#	106689
#	125715
#	146358
#	161153
#	176833
#	196705
#	217108
#	232880
#
# Disc length: 3353 seconds
#
# Revision: 1
# Processed by: cddbd v1.4PL0 Copyright (c) Steve Scherf et al.
# Submitted via: audiograbber 1.82.02
#
DISCID=ce0d170f
DTITLE=Complication - CB80114 - Karaoke CD+G
DYEAR=1900
DGENRE=Country
TTITLE0=Charlie Daniels Band - The Devil Went Down To Georgia
TTITLE1=Don Williams - Tulsa Time
TTITLE2=Ronnie Milsap - Back On My Mind Again
TTITLE3=Crystal Gayle - Why Have You Left The One You Left For Me
TTITLE4=Eddie Rabbitt - Every Which Way But Loose
TTITLE5=John Conlee - Backside Of Thirty
TTITLE6=Hank Williams Jnr. - Family Tradition
TTITLE7=Crystal Gayle - Half The Way
TTITLE8=Eddie Rabbitt - Suspicions
TTITLE9=John Conlee - Lady Lay Down
TTITLE10=Dolly Parton - I Really Got The Feeling
TTITLE11=Ronnie Milsap - Nobody Likes Sad Songs
TTITLE12=Kenny Rogers - She Believes In Me
TTITLE13=Dolly Parton - You're The Only One
TTITLE14=Kenny Rogers - You Decorated My Life
EXTD=
EXTT0=
EXTT1=
EXTT2=
EXTT3=
EXTT4=
EXTT5=
EXTT6=
EXTT7=
EXTT8=
EXTT9=
EXTT10=
EXTT11=
EXTT12=
EXTT13=
EXTT14=
PLAYORDER=
